<?xml version="1.0" encoding="iso-8859-1"?>
<!-- Generator: Adobe Illustrator 19.0.0, SVG Export Plug-In . SVG Version: 6.00 Build 0)  -->
<svg version="1.1" id="Capa_1" xmlns="http://www.w3.org/2000/svg" xmlns:xlink="http://www.w3.org/1999/xlink" x="0px" y="0px"
	 viewBox="0 0 512 512" style="enable-background:new 0 0 512 512;" xml:space="preserve">
<path style="fill:#F8A599;" d="M418.909,468.945l-27.927-75.636c-27.927,0-51.2,3.491-65.164,6.982
	c3.491,22.109,18.618,68.655,20.945,74.473c2.327,1.164,16.291,1.164,23.273,1.164C395.636,477.091,413.091,472.436,418.909,468.945
	z"/>
<path style="fill:#014463;" d="M371.2,500.364c-24.436,0-36.073,0-44.218-13.964c-4.655-8.145-24.436-73.309-24.436-93.091
	c0-4.655,2.327-8.145,6.982-10.473c22.109-11.636,64-12.8,86.109-12.8c1.164,0,2.327,0,3.491,0c4.655,0,10.473,2.327,11.636,8.145
	l30.255,83.782c2.327,5.818,2.327,12.8-1.164,17.455C428.218,499.2,380.509,500.364,371.2,500.364z M326.982,400.291
	c3.491,22.109,18.618,68.655,20.945,74.473c2.327,1.164,16.291,1.164,23.273,1.164c24.436,0,41.891-4.655,47.709-8.145
	l-27.927-75.636C364.218,393.309,340.945,396.8,326.982,400.291z"/>
<path style="fill:#EF928C;" d="M386.327,432.873l15.127,41.891c8.145-1.164,15.127-3.491,17.455-5.818l-27.927-75.636
	c-27.927,0-51.2,3.491-65.164,6.982c1.164,4.655,2.327,10.473,3.491,17.455c8.145-1.164,18.618-2.327,29.091-3.491
	C371.2,414.255,382.836,421.236,386.327,432.873z"/>
<path style="fill:#F8A599;" d="M488.727,186.182c0-38.4-25.6-70.982-62.836-79.127c-3.491-1.164-5.818-2.327-6.982-5.818
	c-16.291-26.764-44.218-43.055-75.636-43.055c-13.964,0-26.764,3.491-39.564,9.309c-4.655,2.327-11.636,1.164-15.127-3.491
	c-12.8-18.618-33.745-29.091-55.855-29.091c-24.436,0-46.545,12.8-59.345,32.582c-2.327,4.655-8.145,6.982-12.8,4.655
	c-6.982-1.164-13.964-2.327-20.945-2.327c-32.582,0-61.673,23.273-68.655,55.855c-1.164,3.491-3.491,6.982-6.982,8.145
	c-24.436,11.636-40.727,36.073-40.727,64c0,12.8,3.491,25.6,10.473,36.073c2.327,3.491,2.327,8.145,0,11.636
	c-5.818,10.473-9.309,20.945-9.309,32.582c0,43.055,44.218,77.964,98.909,77.964c13.964,0,26.764-2.327,38.4-5.818
	c3.491-1.164,8.145,0,11.636,2.327c24.436,20.945,62.836,26.764,91.927,12.8c1.164-1.164,3.491-1.164,4.655-1.164
	c3.491,0,6.982,1.164,9.309,4.655c8.145,9.309,19.782,16.291,32.582,16.291c23.273-10.473,61.673-11.636,83.782-11.636
	c1.164,0,2.327,0,3.491,0c44.218-2.327,74.473-37.236,74.473-86.109c0-10.473-2.327-20.945-5.818-31.418v-1.164
	c0-1.164,0-1.164-1.164-2.327c-2.327-4.655-1.164-9.309,1.164-12.8C481.745,224.582,488.727,205.964,488.727,186.182z"/>
<path style="fill:#014463;" d="M314.182,407.273c-17.455,0-34.909-6.982-47.709-18.618c-11.636,4.655-24.436,6.982-38.4,6.982
	c-24.436,0-46.545-8.145-65.164-22.109c-12.8,3.491-26.764,5.818-40.727,5.818C54.691,379.345,0,333.964,0,278.109
	c0-12.8,3.491-25.6,9.309-38.4C3.491,226.909,0,212.945,0,197.818c0-34.909,19.782-66.327,50.036-82.618
	c10.473-39.564,47.709-68.655,89.6-68.655c5.818,0,12.8,1.164,18.618,2.327c17.455-23.273,45.382-37.236,74.473-37.236
	c26.764,0,52.364,11.636,69.818,31.418c12.8-5.818,26.764-8.145,40.727-8.145c37.236,0,72.145,19.782,93.091,50.036
	C480.582,97.745,512,138.473,512,186.182c0,23.273-8.145,45.382-20.945,64c4.655,11.636,5.818,24.436,5.818,36.073
	c0,60.509-40.727,107.055-96.582,109.382c-1.164,0-3.491,0-4.655,0c-34.909,0-62.836,3.491-76.8,10.473
	C317.673,407.273,316.509,407.273,314.182,407.273z M269.964,363.055c3.491,0,6.982,1.164,9.309,4.655
	c8.145,9.309,19.782,16.291,32.582,16.291c23.273-10.473,61.673-11.636,83.782-11.636c1.164,0,2.327,0,3.491,0
	c44.218-2.327,74.473-37.236,74.473-86.109c0-10.473-2.327-20.945-5.818-31.418v-1.164c0-1.164,0-1.164-1.164-2.327
	c-2.327-4.655-1.164-9.309,1.164-12.8c12.8-15.127,19.782-33.745,19.782-53.527c0-38.4-25.6-70.982-62.836-79.127
	c-2.327,0-4.655-1.164-5.818-4.655c-16.291-26.764-44.218-43.055-75.636-43.055c-13.964,0-26.764,3.491-39.564,9.309
	c-4.655,2.327-11.636,1.164-15.127-3.491c-12.8-18.618-33.745-29.091-55.855-29.091c-24.436,0-46.545,12.8-59.345,32.582
	c-2.327,4.655-8.145,6.982-12.8,4.655c-6.982-1.164-13.964-2.327-20.945-2.327c-32.582,0-61.673,23.273-68.655,55.855
	c-1.164,3.491-3.491,6.982-6.982,8.145c-24.436,11.636-40.727,36.073-40.727,64c0,12.8,3.491,25.6,10.473,36.073
	c2.327,3.491,2.327,8.145,0,11.636c-5.818,10.473-9.309,20.945-9.309,32.582c0,43.055,44.218,77.964,98.909,77.964
	c13.964,0,26.764-2.327,38.4-5.818c3.491-1.164,8.145,0,11.636,2.327c24.436,20.945,62.836,26.764,91.927,12.8
	C266.473,364.218,267.636,363.055,269.964,363.055z"/>
<g>
	<path style="fill:#EF928C;" d="M274.618,48.873L274.618,48.873L274.618,48.873z"/>
	<path style="fill:#EF928C;" d="M467.782,254.836c0-1.164,0-1.164-1.164-2.327c-2.327-4.655-1.164-9.309,1.164-12.8
		c12.8-15.127,19.782-33.745,19.782-53.527c0-26.764-12.8-50.036-33.745-65.164c9.309,13.964,16.291,30.255,16.291,47.709
		c0,19.782-6.982,38.4-19.782,53.527c-3.491,3.491-3.491,8.145-1.164,12.8c0,1.164,0,1.164,1.164,2.327c0,0,0,0,0,1.164
		c3.491,10.473,5.818,20.945,5.818,31.418c0,48.873-30.255,83.782-74.473,86.109c-1.164,0-2.327,0-3.491,0
		c-22.109,0-60.509,1.164-83.782,11.636c-12.8-1.164-24.436-6.982-32.582-16.291c-2.327-2.327-5.818-4.655-9.309-4.655
		c-1.164,0-3.491,0-4.655,1.164c-29.091,13.964-67.491,9.309-91.927-12.8c-3.491-2.327-8.145-3.491-11.636-2.327
		c-11.636,4.655-25.6,5.818-38.4,5.818c-25.6,0-50.036-8.145-67.491-20.945c17.455,23.273,48.873,38.4,84.945,38.4
		c13.964,0,26.764-2.327,38.4-5.818c3.491-1.164,8.145,0,11.636,2.327c24.436,20.945,62.836,26.764,91.927,12.8
		c1.164-1.164,3.491-1.164,4.655-1.164c3.491,0,6.982,1.164,9.309,4.655c8.145,10.473,19.782,16.291,32.582,16.291
		c23.273-10.473,61.673-11.636,83.782-11.636c1.164,0,2.327,0,3.491,0c44.218-2.327,74.473-37.236,74.473-86.109
		C473.6,275.782,471.273,265.309,467.782,254.836L467.782,254.836z"/>
</g>
<g>
	<path style="fill:#014463;" d="M23.273,251.345c-1.164,0-3.491,0-4.655-1.164c-5.818-2.327-9.309-9.309-5.818-15.127
		c0-1.164,1.164-2.327,1.164-3.491c20.945-34.909,62.836-55.855,108.218-55.855c6.982,0,11.636,4.655,11.636,11.636
		s-4.655,11.636-11.636,11.636c-37.236,0-72.145,17.455-88.436,44.218C32.582,249.018,27.927,251.345,23.273,251.345z"/>
	<path style="fill:#014463;" d="M165.236,372.364c-2.327,0-5.818-1.164-8.145-3.491c-22.109-19.782-34.909-46.545-34.909-74.473
		c0-6.982,4.655-11.636,11.636-11.636c6.982,0,11.636,4.655,11.636,11.636c0,22.109,9.309,41.891,26.764,58.182
		c4.655,4.655,5.818,11.636,1.164,16.291C172.218,371.2,168.727,372.364,165.236,372.364z"/>
	<path style="fill:#014463;" d="M209.455,290.909c-6.982,0-11.636-4.655-11.636-11.636c0-33.745,26.764-60.509,60.509-60.509
		c6.982,0,11.636,4.655,11.636,11.636c0,6.982-4.655,11.636-11.636,11.636c-20.945,0-37.236,16.291-37.236,37.236
		C221.091,286.255,216.436,290.909,209.455,290.909z"/>
	<path style="fill:#014463;" d="M354.909,250.182c-24.436,0-44.218,19.782-44.218,44.218c0,30.255-17.455,57.018-45.382,69.818
		c-5.818,2.327-8.145,9.309-5.818,15.127c2.327,4.655,5.818,6.982,10.473,6.982c1.164,0,3.491,0,4.655-1.164
		c36.073-17.455,59.345-52.364,59.345-90.764c0-11.636,9.309-20.945,20.945-20.945c6.982,0,11.636-4.655,11.636-11.636
		C366.545,254.836,361.891,250.182,354.909,250.182z"/>
	<path style="fill:#014463;" d="M309.527,52.364c-3.491-5.818-10.473-8.145-16.291-5.818
		c-37.236,18.618-60.509,57.018-60.509,98.909c0,4.655-9.309,11.636-23.273,11.636c-6.982,0-11.636,4.655-11.636,11.636
		s4.655,11.636,11.636,11.636c13.964,0,26.764-4.655,34.909-11.636c8.145,6.982,20.945,11.636,34.909,11.636
		c6.982,0,11.636-4.655,11.636-11.636s-4.655-11.636-11.636-11.636c-13.964,0-23.273-6.982-23.273-11.636
		c0-32.582,18.618-62.836,47.709-77.964C309.527,65.164,311.855,58.182,309.527,52.364z"/>
	<path style="fill:#014463;" d="M345.6,128c-3.491,0-6.982-1.164-9.309-3.491c-4.655-4.655-3.491-11.636,1.164-16.291
		c25.6-23.273,62.836-31.418,95.418-23.273c6.982,1.164,10.473,8.145,9.309,13.964c-1.164,5.818-8.145,10.473-13.964,8.145
		c-25.6-6.982-54.691,0-74.473,17.455C351.418,126.836,347.927,128,345.6,128z"/>
	<path style="fill:#014463;" d="M478.255,258.327c-4.655,0-8.145-2.327-10.473-5.818c-13.964-26.764-41.891-43.055-72.145-43.055
		c-6.982,0-11.636-4.655-11.636-11.636c0-6.982,4.655-11.636,11.636-11.636c38.4,0,74.473,20.945,91.927,55.855
		c3.491,5.818,1.164,12.8-4.655,16.291C481.745,258.327,479.418,258.327,478.255,258.327z"/>
</g>
<g>
</g>
<g>
</g>
<g>
</g>
<g>
</g>
<g>
</g>
<g>
</g>
<g>
</g>
<g>
</g>
<g>
</g>
<g>
</g>
<g>
</g>
<g>
</g>
<g>
</g>
<g>
</g>
<g>
</g>
</svg>
